# xmcd
#
# Track frame offsets:
#	150
#	11096
#	29343
#	40882
#	53289
#	60765
#	76454
#	93060
#	105671
#	116834
#	130613
#	141512
#	154726
#	171402
#
# Disc length: 2510 seconds
#
# Revision: 0
# Processed by: cddbd v1.5.2PL0 Copyright (c) Steve Scherf et al.
# Submitted via: EasyCDDAExtractor 12.0.7.1
#
DISCID=ab09cc0e
DTITLE=Waylon Jennings - This Time
DYEAR=1974
DGENRE=Country
TTITLE0=This Time
TTITLE1=Louisiana Women
TTITLE2=Pick Up The Tempo
TTITLE3=Slow Rollin' Low
TTITLE4=Heaven Or Hell
TTITLE5=It's Not Supposed To Be That Way
TTITLE6=Slow Movin' Outlaw
TTITLE7=Mona
TTITLE8=Walkin'
TTITLE9=If You Can Touch Her At All
TTITLE10=That'll Be The Day
TTITLE11=It Doesn't Matter Anymore
TTITLE12=Lady In The Harbor
TTITLE13=If You're Goin' Girl
EXTD=
EXTT0=
EXTT1=
EXTT2=
EXTT3=
EXTT4=
EXTT5=
EXTT6=
EXTT7=
EXTT8=
EXTT9=
EXTT10=
EXTT11=
EXTT12=
EXTT13=
PLAYORDER=
